<svg xmlns="http://www.w3.org/2000/svg" version="1.1" xmlns:xlink="http://www.w3.org/1999/xlink" xmlns:svgjs="http://svgjs.dev/svgjs" width="2000" height="1252" viewBox="0 0 2000 1252"><g transform="matrix(1,0,0,1,-1.2121212121212466,-2.01935483870966)"><svg viewBox="0 0 396 248" data-background-color="#ffffff" preserveAspectRatio="xMidYMid meet" height="1252" width="2000" xmlns="http://www.w3.org/2000/svg" xmlns:xlink="http://www.w3.org/1999/xlink"><g id="tight-bounds" transform="matrix(1,0,0,1,0.2400000000000091,0.4000000000000057)"><svg viewBox="0 0 395.52 247.2" height="247.2" width="395.52"><g><svg></svg></g><g><svg viewBox="0 0 395.52 247.2" height="247.2" width="395.52"><g transform="matrix(1,0,0,1,137.4623018181818,47.215199999999996)"><svg viewBox="0 0 120.59539636363635 152.7696" height="152.7696" width="120.59539636363635"><g><svg viewBox="0 0 120.59539636363635 152.7696" height="152.7696" width="120.59539636363635"><g><svg viewBox="0 0 120.59539636363635 152.7696" height="152.7696" width="120.59539636363635"><g><svg viewBox="0 0 120.59539636363635 152.7696" height="152.7696" width="120.59539636363635"><g id="textblocktransform"><svg viewBox="0 0 120.59539636363635 152.7696" height="152.7696" width="120.59539636363635" id="textblock"><g><svg viewBox="0 0 120.59539636363635 152.7696" height="152.7696" width="120.59539636363635"><g transform="matrix(1,0,0,1,0,0)"><svg width="120.59539636363635" viewBox="2.1499999999999995 -32.35 26.05 33" height="152.7696" data-palette-color="#c8c8c8"><path d="M10.2 0.65L10.2 0.65Q8.35 0.65 6.8 0.3 5.25-0.05 4.25-1L4.25-1Q3.5-1.7 3.25-2.58 3-3.45 3-4.5L3-4.5Q3-6.2 3.3-7.9L3.3-7.9Q3.75-10.85 4.1-14.25 4.45-17.65 4.45-20.55L4.45-20.55Q4.45-21.45 4.38-22.6 4.3-23.75 4.15-24.75L4.15-24.75Q3.8-24.6 3.48-24.48 3.15-24.35 2.9-24.35L2.9-24.35Q2.45-24.35 2.3-24.8 2.15-25.25 2.15-25.8L2.15-25.8Q2.15-27.25 2.83-28.28 3.5-29.3 5.05-30.1L5.05-30.1Q6.7-31 9.38-31.68 12.05-32.35 14.8-32.35L14.8-32.35Q21.05-32.35 24.63-28.68 28.2-25 28.2-18.25L28.2-18.25Q28.2-14.4 27.03-10.98 25.85-7.55 23.55-4.93 21.25-2.3 17.9-0.83 14.55 0.65 10.2 0.65ZM11.8-4.95L11.8-4.95Q14.05-4.95 16.3-5.65 18.55-6.35 20.38-7.75 22.2-9.15 23.3-11.33 24.4-13.5 24.4-16.55L24.4-16.55Q24.4-20 23.05-22.25 21.7-24.5 19.45-25.6 17.2-26.7 14.45-26.7L14.45-26.7Q12.95-26.7 11.48-26.45 10-26.2 9.15-25.95L9.15-25.95Q9.1-23.65 8.88-21.48 8.65-19.3 8.35-17.25L8.35-17.25Q8.05-15.1 7.88-13.05 7.7-11 7.7-9L7.7-9Q7.7-6.5 8.72-5.73 9.75-4.95 11.8-4.95Z" opacity="1" transform="matrix(1,0,0,1,0,0)" fill="#c8c8c8" class="wordmark-text-0" data-fill-palette-color="primary" id="text-0"></path></svg></g></svg></g></svg></g></svg></g></svg></g></svg></g></svg></g><g><path d="M183.898 0c30.402 0 58.24 10.976 79.768 29.183l-11.147 0c-19.26-14.022-42.974-22.294-68.621-22.295-25.647 0-49.361 8.272-68.621 22.295l-11.148 0c21.528-18.206 49.366-29.183 79.769-29.183zM183.898 247.2c-30.402 0-58.24-10.976-79.769-29.183l11.148 0c19.26 14.022 42.974 22.294 68.621 22.295 25.647 0 49.361-8.272 68.621-22.295l11.147 0c-21.528 18.206-49.366 29.183-79.768 29.183z" fill="#c8c8c8" stroke="transparent" data-fill-palette-color="tertiary"></path></g></svg></g><defs></defs></svg><rect width="395.52" height="247.2" fill="none" stroke="none" visibility="hidden"></rect></g></svg></g></svg>